<?xml version="1.0" encoding="UTF-8" standalone="no"?>
<svg
   xmlns:svg="http://www.w3.org/2000/svg"
   xmlns="http://www.w3.org/2000/svg"
   width="1024"
   height="1024"
   viewBox="0 0 1024 1024"
   version="1.1"
   id="svg4766"
   >
  <metadata
     id="metadata4770">
    </metadata>
  <!-- Generator: Sketch 43.2 (39069) - http://www.bohemiancoding.com/sketch -->
  <title
     id="title4756">company_grey</title>
  <desc
     id="desc4758">Created with Sketch.</desc>
  <defs
     id="defs4760" />
  <g
     id="g4764"
     style="fill:none;fill-rule:evenodd;stroke:none;stroke-width:1"
     transform="translate(0,994)">
    <g
       id="company_grey"
       style="fill:#778591;fill-rule:nonzero">
      <path
         d="m 11.79927,26.960937 c 0,0.441828 -0.358173,0.8 -0.8,0.8 H 1.9433594 c -0.4418278,0 -0.8,-0.358172 -0.8,-0.8 V 10.155982 c 0,-0.3416262 0.2169347,-0.6455565 0.5400184,-0.7565772 L 7.6595,7.3458392 c 0.1626951,-0.055907 0.3390782,-0.057879 0.5029826,-0.00562 L 11.79927,8.4996778 Z M 23.219468,10.688866 c 0.142044,-0.03615 0.29129,-0.03258 0.431443,0.01032 l 4.574683,1.400226 c 0.334366,0.102344 0.563519,0.409991 0.565839,0.759662 l 0.09351,14.096557 c 0.0029,0.443892 -0.35608,0.805306 -0.799982,0.805306 h -4.66823 c -0.441828,0 -0.8,-0.358172 -0.8,-0.8 V 10.842254 Z m -5.737267,2.081963 c 2e-6,-0.365835 0.248165,-0.68506 0.602699,-0.775284 l 4.531831,-1.153291 V 5.4961932 L 17.25276,3.6271496 11.79927,5.4989966 v 3.0006812 l 2.804459,0.8941035 c 0.330196,0.1052715 0.555058,0.4111835 0.556986,0.7577497 l 0.08908,16.009406 h 2.232332 z m 5.700425,-0.541706 0.431443,0.01032 -0.217167,0.05527 z m 1.034105,13.931814 h 3.062905 L 27.195367,13.45735 24.216731,12.545644 Z M 7.9289029,8.9450939 2.7433594,10.726994 V 26.160937 H 10.19927 V 9.6689208 Z m 15.4679991,3.3496161 -4.314704,1.098034 -7.2e-5,13.568198 c -2e-6,0.441826 -0.358173,0.799995 -0.8,0.799995 h -3.827888 c -0.440091,0 -0.797539,-0.355464 -0.799988,-0.795548 L 13.563974,10.741639 10.19927,9.6689208 V 4.927774 c 0,-0.3417291 0.217063,-0.6457269 0.540282,-0.7566682 L 16.99501,2.0239927 c 0.169531,-0.058189 0.353692,-0.057761 0.52295,0.00122 l 6.162004,2.1471131 c 0.32141,0.1119932 0.536767,0.41509 0.536767,0.7554524 v 7.6178698 z"
         id="Page-1"
         />
    </g>
  </g>
  <path
     style="stroke-width:1.33016062"
     d="M 15.055257,983.39299 C 6.9021983,978.64319 2.8422396,972.78179 1.0709118,963.19736 0.17463125,958.3516 -0.16154326,850.72923 0.07176965,643.37362 l 0.351613,-312.51448 3.32540155,-5.86883 c 1.8290521,-3.21327 5.4204944,-7.52348 7.9810528,-9.55486 3.414007,-2.69619 35.339646,-14.20856 119.714473,-43.14276 102.44931,-35.13175 115.71492,-39.37548 121.04464,-38.72913 3.29216,0.40627 22.84435,6.14214 43.44931,12.76443 20.60497,6.6186 37.8139,12.03684 38.24215,12.03684 0.42807,0 0.78448,-26.78464 0.7915,-59.52305 l 0.0133,-59.52638 3.16932,-6.80659 c 1.74292,-3.74327 5.17901,-8.32901 7.63543,-10.18976 2.94439,-2.23082 44.79711,-17.19985 122.85016,-43.938689 65.11137,-22.304889 120.31966,-40.959582 122.68515,-41.454499 2.65556,-0.554012 7.22509,-0.03693 11.94487,1.322242 6.84515,1.99075 222.26762,76.897236 230.5741,80.175876 5.63201,2.22344 12.1267,8.48303 14.71685,14.18529 2.30691,5.07882 2.44356,11.63093 2.47089,118.72699 l 0.0293,113.35086 14.96431,4.63523 c 8.23037,2.54846 42.42229,13.04144 75.98205,23.31652 33.55975,10.27138 62.97746,19.88903 65.37276,21.37009 4.5531,2.80699 8.0466,7.21693 11.0658,13.95002 1.4589,3.2502 2.137,53.11498 3.6716,270.01437 l 1.8822,266.02179 -3.6668,7.32775 c -2.4458,4.8827 -5.5876,8.6536 -9.4339,11.3129 l -5.767,3.9926 -93.32999,0.4063 c -64.82753,0.3693 -94.86004,0 -98.34012,-1.0711 -6.56741,-1.9206 -14.0913,-8.6315 -17.11713,-15.2945 -2.31724,-5.1006 -2.42361,-17.05983 -2.45168,-275.68741 -0.0265,-245.06166 -0.2253,-270.35416 -2.12298,-270.35416 -1.1516,0 -30.7733,7.27972 -65.8263,16.17715 l -63.73269,16.17346 -0.35088,254.84552 -0.35087,254.84554 -3.73149,6.3453 c -2.05243,3.5087 -6.1981,7.9814 -9.21289,9.9796 l -5.48147,3.6195 -77.91263,0.4063 c -54.32209,0.3693 -79.44794,0 -82.98342,-1.0711 -2.7889,-0.8126 -7.39289,-3.5826 -10.23102,-6.1385 -10.18636,-9.2039 -9.21207,18.6001 -11.12507,-317.45253 -1.02271,-179.62915 -2.21273,-302.12121 -2.94181,-302.81187 -0.67368,-0.62788 -15.29121,-5.62877 -32.48349,-11.09502 l -31.25884,-9.93897 -0.66518,313.41567 c -0.50341,237.17253 -1.04782,314.26882 -2.23858,316.92442 -2.47865,5.529 -9.67682,13.034 -15.207,15.8558 -4.93418,2.5115 -9.43981,2.5854 -179.69766,2.5854 l -174.633054,-0.015 z M 334.95895,624.91394 V 319.73089 l -27.60084,-8.81987 c -15.18046,-4.84945 -34.18514,-10.9325 -42.23261,-13.5142 l -14.63177,-4.69433 -85.79538,29.53992 c -47.18745,16.24733 -90.434305,31.09485 -96.104115,32.99326 l -10.308749,3.47181 v 285.7003 285.70398 H 196.62221 334.95895 Z m 269.01142,53.44738 0.34718,-251.73197 3.32555,-5.92423 c 6.36933,-11.35356 5.88822,-11.18366 99.76209,-35.03942 l 85.79537,-21.79852 0.33979,-99.3085 c 0.18836,-54.6182 0.0997,-99.30517 -0.19206,-99.30517 -0.29178,0 -45.06551,-15.50938 -99.4945,-34.46546 L 594.89244,96.322231 515.80435,123.44961 c -43.49848,14.92028 -88.81489,30.49873 -100.70321,34.61873 l -21.61511,7.49135 0.0275,56.04459 0.0276,56.04755 30.89873,9.74692 c 82.05021,25.88344 76.8337,23.97025 83.63247,30.69965 3.99723,3.95565 6.65948,7.99255 7.54187,11.43112 1.19187,4.65 4.31406,414.36034 4.25467,558.33329 l -0.0175,42.23418 h 41.88649 41.88648 z m 361.50025,227.45887 c 0.0211,-33.28874 -2.91336,-445.87625 -3.17338,-446.17911 -0.3361,-0.40628 -109.43373,-33.67654 -110.37769,-33.67654 -0.47202,0 -0.85798,113.42841 -0.85798,252.06438 v 252.06807 h 57.19694 57.1969 l 0.0154,-24.2768 z"
     id="path4772"
     />
</svg>
