<?xml version="1.0" encoding="UTF-8" standalone="no"?>
<svg
   xmlns:svg="http://www.w3.org/2000/svg"
   xmlns="http://www.w3.org/2000/svg"
   width="1024"
   height="1024"
   viewBox="0 0 1024 1024"
   version="1.1"
   id="svg5815"
   >
  <metadata
     id="metadata5819">
    </metadata>
  <!-- Generator: Sketch 43.2 (39069) - http://www.bohemiancoding.com/sketch -->
  <title
     id="title5797">listview_grey</title>
  <desc
     id="desc5799">Created with Sketch.</desc>
  <defs
     id="defs5801" />
  <g
     id="g5813"
     style="fill:none;fill-rule:evenodd;stroke:none;stroke-width:1"
     transform="matrix(38.174634,0,0,38.174634,-61.064493,-50.822124)">
    <g
       id="listview_grey"
       style="fill:#778591">
      <g
         id="Page-1"
         transform="translate(1.599609,3.007812)">
        <polygon
           id="Fill-1"
           points="6.7060238,0 6.7060238,3.3530119 26.824095,3.3530119 26.824095,0 " />
        <polygon
           id="Fill-2"
           points="6.7060238,6.7060238 6.7060238,10.059036 26.824095,10.059036 26.824095,6.7060238 " />
        <polygon
           id="Fill-3"
           points="6.7060238,13.412048 6.7060238,16.765059 26.824095,16.765059 26.824095,13.412048 " />
        <polygon
           id="Fill-4"
           points="6.7060238,20.118071 6.7060238,23.471083 26.824095,23.471083 26.824095,20.118071 " />
        <polygon
           id="Fill-5"
           points="0,0 0,3.3530119 3.3530119,3.3530119 3.3530119,0 " />
        <polygon
           id="Fill-6"
           points="0,6.7060238 0,10.059036 3.3530119,10.059036 3.3530119,6.7060238 " />
        <polygon
           id="Fill-7"
           points="0,13.412048 0,16.765059 3.3530119,16.765059 3.3530119,13.412048 " />
        <polygon
           id="Fill-8"
           points="0,20.118071 0,23.471083 3.3530119,23.471083 3.3530119,20.118071 " />
      </g>
    </g>
  </g>
  <path
     style="stroke-width:6.5193038"
     d="M 256.96039,127.97543 V 66.042048 h 381.37927 381.37924 v 61.933382 61.93339 H 638.33966 256.96039 Z"
     id="path5821"
     />
  <path
     style="stroke-width:6.5193038"
     d="M 256.96039,382.22828 V 320.2949 h 381.37927 381.37924 v 61.93338 61.93339 H 638.33966 256.96039 Z"
     id="path5823"
     />
  <path
     style="stroke-width:6.5193038"
     d="M 2.7075413,382.22828 V 320.2949 H 64.640927 126.57432 v 61.93338 61.93339 H 64.640927 2.7075413 Z"
     id="path5825"
     />
  <path
     style="stroke-width:2.30492187"
     d="m 257.01354,639.54304 v -63.38535 h 382.61705 382.61701 v 63.38535 63.38536 H 639.63059 257.01354 Z"
     id="path5841"
     />
  <path
     style="stroke-width:2.30492187"
     d="M 1.1672033,639.54304 V 576.15769 H 64.552557 127.93791 v 63.38535 63.38536 H 64.552557 1.1672033 Z"
     id="path5843"
     />
  <path
     style="stroke-width:2.30492187"
     d="M 1.1672033,127.85037 V 64.465008 H 64.552557 127.93791 v 63.385362 63.38535 H 64.552557 1.1672033 Z"
     id="path5845"
     />
  <path
     style="stroke-width:2.30492187"
     d="M 1.1672033,895.38938 V 832.00403 H 64.552557 127.93791 v 63.38535 63.38532 H 64.552557 1.1672033 Z"
     id="path5847"
     />
  <path
     style="stroke-width:2.30492187"
     d="m 257.01354,895.38938 v -63.38535 h 382.61705 382.61701 v 63.38535 63.38532 H 639.63059 257.01354 Z"
     id="path5849"
     />
</svg>
