<?xml version="1.0" encoding="UTF-8" standalone="no"?>
<svg
   xmlns:svg="http://www.w3.org/2000/svg"
   xmlns="http://www.w3.org/2000/svg"
   width="1024"
   height="1024"
   viewBox="0 0 1024 1024"
   version="1.1"
   id="svg6501"
   >
  <metadata
     id="metadata6505">
    </metadata>
  <!-- Generator: Sketch 43.2 (39069) - http://www.bohemiancoding.com/sketch -->
  <title
     id="title6491">quickcreate_grey</title>
  <desc
     id="desc6493">Created with Sketch.</desc>
  <defs
     id="defs6495" />
  <g
     id="Page-1"
     style="fill:none;fill-rule:evenodd;stroke:none;stroke-width:1"
     transform="matrix(37.815554,0,0,37.815554,-49.152828,-52.80883)">
    <g
       id="quickcreate_grey"
       style="fill:#778591">
      <path
         d="m 27.024669,12.228006 h -2.70788 v 1.353941 H 16.193147 V 5.4583051 h 1.35394 V 2.7504246 H 5.3616254 V 1.3964844 H 2.6537449 V 2.7504246 H 1.2998047 V 5.4583051 H 2.6537449 V 24.413468 H 1.2998047 v 2.707881 h 1.3539402 v 1.35394 h 2.7078805 v -1.35394 H 24.316789 v 1.35394 h 2.70788 v -1.35394 h 1.35394 v -2.707881 h -1.35394 z M 13.485267,5.4583051 V 13.581947 H 5.3616254 V 5.4583051 Z M 5.3616254,16.289827 h 8.1236416 v 8.123641 H 5.3616254 Z m 10.8315216,8.123641 v -8.123641 h 8.123642 v 8.123641 z"
         id="Fill-1"
         />
      <polygon
         id="Fill-2"
         points="20.254968,4.1043648 20.254968,6.8122453 22.962848,6.8122453 22.962848,9.5201258 25.670729,9.5201258 25.670729,6.8122453 28.378609,6.8122453 28.378609,4.1043648 25.670729,4.1043648 25.670729,1.3964844 22.962848,1.3964844 22.962848,4.1043648 " />
    </g>
  </g>
  <path
     style="stroke-width:1.62982595"
     d="m 51.13226,997.91326 v -25.2623 H 25.869958 0.60765536 v -50.5246 -50.52461 H 25.869958 51.13226 V 512.22513 152.84851 H 25.869958 0.60765536 V 102.32391 51.799301 H 25.869958 51.13226 V 26.536999 1.2746967 h 50.5246 50.52461 V 26.536999 51.799301 h 230.62037 230.62037 v 50.524609 50.5246 h -25.2623 -25.2623 v 154.01855 154.01855 h 154.01855 154.01855 v -25.2623 -25.2623 h 50.52461 50.5246 v 230.62037 230.62037 h 25.2623 25.26228 v 50.52461 50.5246 h -25.26228 -25.2623 v 25.2623 25.26234 h -50.5246 -50.52461 v -25.26234 -25.2623 H 511.55809 152.18147 v 25.2623 25.26234 H 101.65686 51.13226 Z M 461.8484,716.76003 V 561.91828 l -154.42601,0.41574 -154.42601,0.41572 -0.42037,152.38872 c -0.2312,83.8138 -0.0709,153.30551 0.3563,154.42601 0.61378,1.60998 33.0914,2.03728 154.84639,2.03728 h 154.0697 z m 409.08631,0.008 V 561.93471 H 716.91616 562.89761 V 716.76817 871.60164 H 716.91616 870.93471 Z M 461.8484,306.8588 V 152.83197 l -154.42601,0.41573 -154.42601,0.41572 -0.41577,153.6111 -0.41577,153.61109 H 307.00662 461.8484 Z"
     id="path6507"
     />
  <path
     style="stroke-width:1.62982595"
     d="m 820.02587,255.12009 -0.43068,-50.93206 -50.93206,-0.43068 -50.93206,-0.43067 v -50.50139 -50.50138 h 51.33952 51.33952 V 51.799301 1.2746967 h 50.5246 50.52461 V 51.799301 102.32391 h 50.5246 50.52458 v 50.5246 50.5246 h -50.52458 -50.5246 v 51.33952 51.33952 h -50.50139 -50.50138 z"
     id="path6509"
     />
</svg>
