<?xml version="1.0" encoding="UTF-8" standalone="no"?>
<svg
   xmlns:svg="http://www.w3.org/2000/svg"
   xmlns="http://www.w3.org/2000/svg"
   width="1024"
   height="1024"
   viewBox="0 0 1024 1024"
   version="1.1"
   id="svg3810"
   >
  <metadata
     id="metadata3814">
    </metadata>
  <!-- Generator: Sketch 43.2 (39069) - http://www.bohemiancoding.com/sketch -->
  <title
     id="title3801">basic_grey</title>
  <desc
     id="desc3803">Created with Sketch.</desc>
  <defs
     id="defs3805" />
  <g
     id="Page-1"
     style="fill:none;fill-rule:evenodd;stroke:none;stroke-width:1"
     transform="translate(0,994)">
    <g
       id="basic_grey"
       style="fill:#778591">
      <path
         d="m 27.400481,8.5173898 c 0,-0.0059 -0.0014,-0.013271 -0.0014,-0.01917 -0.02067,-0.2801695 -0.16923,-0.5337966 -0.409615,-0.6758474 l -11.369274,-6.70883 c -0.259615,-0.15138986 -0.578846,-0.15138986 -0.836057,0 L 3.4168269,7.8223729 C 3.1764423,7.9644237 3.0278846,8.2180508 3.0072115,8.4982203 c 0,0.0059 -0.00192,0.011305 -0.00192,0.01917 C 3.0052885,8.5326271 3,8.5478644 3,8.5635932 V 21.984203 c 0,0.305238 0.1596154,0.587865 0.41875,0.741221 l 11.367308,6.710305 c 0.0096,0.0059 0.02067,0.0079 0.03029,0.01376 0.04471,0.02507 0.09183,0.04424 0.142789,0.05948 0.01683,0.0059 0.03173,0.01131 0.04856,0.01524 0.06394,0.01524 0.129808,0.02703 0.197116,0.02703 0.06779,0 0.133653,-0.0118 0.197115,-0.02703 0.01731,-0.0039 0.03221,-0.0093 0.04904,-0.01524 0.04904,-0.01524 0.0976,-0.03637 0.142788,-0.05948 0.0091,-0.0059 0.02067,-0.0079 0.02981,-0.01376 l 11.367788,-6.710305 c 0.259135,-0.15139 0.41875,-0.434017 0.41875,-0.741221 V 8.5635932 c -0.0038,-0.015729 -0.0096,-0.030966 -0.0096,-0.046203 z m -12.197596,-5.675644 9.7375,5.7483898 -9.7375,5.7469154 L 5.4639423,8.5881695 Z M 4.6711538,10.095678 13.736539,15.446915 c -0.03606,0.0034 -0.06971,0.01524 -0.101443,0.03637 l -0.944711,0.558373 c -0.133654,0.07914 -0.178366,0.253627 -0.101443,0.38978 0.05048,0.09241 0.144712,0.142542 0.242308,0.142542 0.04663,0 0.09567,-0.0118 0.138942,-0.03883 l 0.944712,-0.558372 c 0.123558,-0.07324 0.166827,-0.226594 0.1125,-0.357339 l 0.339904,0.201525 V 27.216491 L 4.6711538,21.490712 Z M 16.038942,27.212559 V 15.817034 l 0.339904,-0.201525 c -0.05481,0.130745 -0.01154,0.286067 0.1125,0.359305 l 0.944712,0.558372 c 0.04327,0.02703 0.09183,0.03883 0.138942,0.03883 0.09567,0 0.189423,-0.0521 0.242308,-0.142051 0.07692,-0.136644 0.03173,-0.311135 -0.101443,-0.38978 l -0.944711,-0.558864 c -0.03173,-0.01917 -0.06779,-0.03097 -0.101443,-0.03637 l 9.065385,-5.351237 v 11.395525 z"
         id="Fill-1"
         />
    </g>
  </g>
  <path
     style="stroke-width:1.20142961;image-rendering:auto"
     d="M 500.29396,1021.1554 C 496.99014,1019.5748 403.18841,964.53753 291.84591,898.83123 145.37283,812.39391 87.851608,777.85059 83.786249,773.88832 73.564671,763.92694 74.387123,786.7307 74.387123,513.27236 c 0,-169.9182 0.3903,-244.23159 1.305181,-248.49921 0.717844,-3.34082 3.015571,-8.59991 5.10607,-11.6749 C 84.378507,247.83557 96.694234,240.37441 292.843,124.64461 442.94839,36.080661 502.65315,1.4468196 506.69748,0.59006199 c 6.39762,-1.35428762 13.3162,-0.3592275 19.42724,2.79838221 10.66564,5.5080352 411.82106,242.6919358 414.30723,244.9586658 1.54971,1.40099 4.25286,5.00404 6.00715,7.97844 l 3.18958,5.40638 v 250.49651 250.50011 l -3.33219,5.66861 c -1.83278,3.12528 -5.61717,7.23125 -8.41002,9.13875 -10.34636,7.07678 -412.51272,243.79329 -416.44651,245.12249 -6.54631,2.2272 -14.5328,1.6524 -21.14611,-1.5088 z M 482.87322,736.30953 V 531.4816 l -4.89713,-3.08936 c -7.34491,-4.63403 -8.10263,-4.75976 -7.42495,-1.22137 0.32331,1.68837 -0.24068,4.33588 -1.26735,5.90211 -2.53974,3.87606 -38.13484,24.80466 -42.18692,24.80466 -6.52842,0 -11.13839,-8.36282 -7.92205,-14.37269 0.64841,-1.22138 10.12045,-7.47194 21.04912,-13.91289 10.92863,-6.44094 19.72428,-11.84373 19.54585,-12.00538 -1.47965,-1.32914 -324.67609,-191.58321 -325.47149,-191.58321 -0.58313,0 -1.04111,90.0296 -1.04111,204.6555 v 204.65909 l 173.90696,102.8145 c 95.64879,56.54959 174.31243,102.85761 174.80802,102.9079 0.49574,0 0.90094,-92.07719 0.90094,-204.73453 z m 234.87954,101.76196 173.00586,-102.13556 0.30535,-205.09375 c 0.26582,-178.41034 0.079,-205.00754 -1.43189,-204.42919 -0.95482,0.35923 -72.45629,42.42118 -158.89253,93.46022 -86.43624,51.03545 -159.23327,93.9811 -161.7711,95.43597 l -4.61431,2.62236 3.41302,1.72429 c 7.50706,3.77548 33.61658,19.50965 36.15183,21.78715 5.72691,5.14773 1.74261,16.42747 -5.80178,16.42747 -3.47229,0 -38.97536,-20.22091 -41.65473,-23.72338 -0.82586,-1.07768 -1.50193,-3.8114 -1.50193,-6.06735 0,-4.64482 -0.518,-4.62326 -8.31856,0.35922 l -4.89716,3.08936 v 204.95725 c 0,163.48443 0.30534,204.8387 1.50193,204.36452 0.82586,-0.35923 79.35446,-46.55588 174.50768,-102.73188 z M 688.31615,375.26434 c 95.78488,-56.49571 174.1639,-102.99052 174.17569,-103.32101 0.0214,-0.61069 -340.85086,-202.191558 -347.08795,-205.267623 -3.2079,-1.580601 -7.31512,0.747193 -157.57837,89.386573 -84.85659,50.0562 -163.66539,96.56898 -175.13068,103.35838 -18.17399,10.76604 -20.56093,12.52626 -18.62216,13.72608 25.52936,15.79164 347.48594,205.18356 348.56168,205.04346 0.84023,0 79.89694,-46.42656 175.68179,-102.92586 z"
     id="path3816"
     />
</svg>
