<?xml version="1.0" encoding="UTF-8" standalone="no"?>
<svg
   xmlns:svg="http://www.w3.org/2000/svg"
   xmlns="http://www.w3.org/2000/svg"
   width="1024"
   height="1024"
   viewBox="0 0 1024 1024"
   version="1.1"
   id="svg5091"
   >
  <metadata
     id="metadata5095">
    </metadata>
  <!-- Generator: Sketch 43.2 (39069) - http://www.bohemiancoding.com/sketch -->
  <title
     id="title5081">editview_grey</title>
  <desc
     id="desc5083">Created with Sketch.</desc>
  <defs
     id="defs5085" />
  <g
     id="g5089"
     style="fill:none;fill-rule:evenodd;stroke:none;stroke-width:1"
     transform="matrix(37.158463,0,0,37.158463,-43.327347,-61.878987)">
    <g
       id="editview_grey"
       style="fill:#778591">
      <path
         d="M 1.1660156,7.3863048 C 1.1671369,6.6585097 1.7581098,6.0675351 2.4870245,6.0664155 H 16.642454 L 15.442563,8.7072849 H 2.4871097 C 1.7581951,8.7061624 1.1672205,8.1151907 1.1661009,7.3862761 Z m 0,16.2232382 c 0.00112,0.728914 0.5920942,1.318769 1.3210089,1.321009 h 7.0962312 c 0.0157,-0.885888 0.1031694,-1.769565 0.2612851,-2.641989 H 2.4870704 c -0.7289146,0.0022 -1.3198893,0.592094 -1.3210088,1.321009 z M 2.4870245,14.106754 H 12.99458 l 1.199891,-2.64087 H 2.4872263 c -0.7300342,0 -1.3210089,0.590975 -1.3210089,1.321009 0,0.728915 0.5909747,1.319889 1.3210089,1.319889 z m -1.3210089,4.07734 c 0.00112,0.727795 0.5920942,1.318769 1.3210089,1.319889 h 8.1121935 c 0.143538,-0.394729 0.303898,-0.783861 0.479962,-1.168485 l 0.668342,-1.472384 H 2.4870245 c -0.7289147,0.0011 -1.3198893,0.592094 -1.3210089,1.321008 z M 27.166488,8.977567 25.705328,8.3226892 26.27948,7.0678514 C 26.69775,6.2312832 26.757203,5.259043 26.444325,4.3776336 26.13147,3.4951046 25.473204,2.7785343 24.620933,2.3916419 23.768662,2.0047496 22.795302,1.9812094 21.926237,2.326602 21.056052,2.6719831 20.364142,3.3571474 20.009775,4.2228824 L 13.16818,19.283176 c -1.250359,2.754149 -1.604697,5.832235 -1.012603,8.798305 0.05495,0.283711 0.244463,0.523683 0.507981,0.642562 0.262405,0.119989 0.567434,0.105411 0.817506,-0.03925 2.622927,-1.508269 4.706611,-3.801461 5.956827,-6.556816 l 5.268419,-11.591841 1.452202,0.657146 c 0.109896,0.04934 0.158116,0.17718 0.109896,0.287075 L 23.44025,17.70962 c -0.140174,0.296033 -0.155874,0.635816 -0.04373,0.943102 0.11214,0.307286 0.344261,0.55621 0.642562,0.691911 0.297181,0.134567 0.636964,0.14466 0.943102,0.02691 0.305018,-0.117747 0.550612,-0.353247 0.679566,-0.653758 l 2.828158,-6.229262 C 29.08872,11.15296 28.497708,9.5841756 27.16666,8.977584 Z"
         id="Page-1"
         />
    </g>
  </g>
  <path
     style="stroke-width:2.30492187"
     d="M 424.55874,1002.1412 C 413.78608,995.57272 410.72668,989.41759 406.75062,966.31351 391.09273,875.32866 400.44074,775.66053 432.62996,690.38889 437.55371,677.34552 501.42108,534.93354 574.55745,373.91785 669.97272,163.8533 710.27559,77.499999 717.2436,68.19721 c 17.7588,-23.709352 45.05486,-41.950905 72.01636,-48.127513 18.3213,-4.197216 48.48899,-3.199724 65.61772,2.169643 33.43197,10.479967 61.60738,34.177273 76.84158,64.628614 10.66033,21.308796 13.85401,37.762696 12.54751,64.645376 -1.11987,23.04256 -4.44101,33.27404 -25.55345,78.72302 l -8.19074,17.63232 29.22436,13.01848 c 16.07342,7.16014 34.61843,16.57547 41.21115,20.92293 31.57111,20.81902 48.56531,64.83012 39.17531,101.45572 -1.9638,7.65988 -28.51302,68.85556 -58.99829,135.9904 -60.50791,133.25083 -60.80872,133.75974 -82.25777,139.16065 -27.12147,6.82928 -53.96364,-14.49277 -53.96364,-42.8659 0,-9.3953 7.77623,-28.09458 54.16566,-130.25068 29.79112,-65.60425 54.16567,-121.75561 54.16567,-124.7808 0,-4.81184 -3.63832,-7.14486 -29.06604,-18.63827 -15.98631,-7.22586 -29.51627,-12.68765 -30.0666,-12.13732 -0.55032,0.55032 -45.92183,99.92198 -100.82556,220.82593 -109.2101,240.49244 -107.14022,236.0988 -125.28023,265.92378 -44.24112,72.73912 -111.87712,140.08027 -181.63808,180.84623 -18.25859,10.66968 -29.9782,12.01558 -41.80978,4.80138 z"
     id="path5097"
     />
  <path
     style="stroke-width:2.30492187"
     d="M 29.732076,256.1888 C 12.029588,248.49976 2.0565553,232.78558 2.0565553,212.58139 c 0,-19.38262 8.9143917,-34.16351 25.8385487,-42.84272 8.261412,-4.2367 17.660768,-4.38554 276.960686,-4.38554 h 268.40904 l -21.29969,46.67467 -21.2997,46.67467 -246.44131,0.49159 c -215.953591,0.43077 -247.43726,0.059 -254.492054,-3.00526 z"
     id="path5099"
     />
  <path
     style="stroke-width:2.30492187"
     d="M 28.563158,456.55321 C 11.019126,447.30424 2.0565553,432.62248 2.0565553,413.13224 c 0,-20.45302 10.1188357,-36.13175 28.1927197,-43.68351 7.505418,-3.13596 35.336639,-3.56739 230.131105,-3.56739 176.3547,0 221.35703,0.58819 220.43663,2.88116 -0.63609,1.58463 -10.23788,22.84753 -21.33735,47.2509 l -20.18084,44.36974 -201.91045,-0.0923 C 57.852802,460.2088 34.711657,459.79461 28.563158,456.55321 Z"
     id="path5101"
     />
  <path
     style="stroke-width:2.30492187"
     d="M 28.563158,657.09022 C 11.007005,647.81251 2.0565553,633.14764 2.0565553,613.66045 c 0,-20.45302 10.1188357,-36.13175 28.1927197,-43.6835 7.453811,-3.11441 30.925237,-3.5674 184.842135,-3.5674 h 176.30415 l -7.08959,15.55823 c -3.89926,8.55702 -13.16943,29.56062 -20.60034,46.67467 l -13.51076,31.11644 -157.35847,0.49275 c -139.818149,0.43783 -158.129247,0.0854 -164.273242,-3.16142 z"
     id="path5103"
     />
  <path
     style="stroke-width:2.30492187"
     d="m 28.12384,857.90587 c -7.321195,-3.64831 -14.192192,-9.41093 -18.3157028,-15.36116 -5.8588844,-8.45437 -6.5991209,-11.50269 -6.5991209,-27.1754 0,-14.87441 0.8742373,-18.92872 5.5544551,-25.75906 6.5502676,-9.55949 17.2045266,-17.30963 28.0860396,-20.43041 4.674371,-1.34059 63.197349,-2.24208 145.551969,-2.24208 h 137.73431 l -0.0731,5.18608 c -0.0401,2.85234 -1.57585,15.55822 -3.41258,28.23529 -1.8367,12.67707 -3.3738,29.79112 -3.41575,38.03122 -0.042,8.24009 -0.70171,17.31572 -1.46612,20.16806 l -1.38982,5.18608 H 175.10943 39.840424 Z"
     id="path5105"
     />
</svg>
