<?xml version="1.0" encoding="UTF-8" standalone="no"?>
<svg
   xmlns:svg="http://www.w3.org/2000/svg"
   xmlns="http://www.w3.org/2000/svg"
   width="1024"
   height="1024"
   viewBox="0 0 1024 1024"
   version="1.1"
   id="svg6350"
   >
  <metadata
     id="metadata6354">
    </metadata>
  <!-- Generator: Sketch 43.2 (39069) - http://www.bohemiancoding.com/sketch -->
  <title
     id="title6340">popupview_grey</title>
  <desc
     id="desc6342">Created with Sketch.</desc>
  <defs
     id="defs6344" />
  <g
     id="g6348"
     style="fill:none;fill-rule:evenodd;stroke:none;stroke-width:1"
     transform="matrix(39.694731,0,0,39.694731,-67.915201,-101.40763)">
    <g
       id="popupview_grey"
       style="fill:#778591">
      <path
         d="m 8.1601563,2.5546875 c -0.5090387,0 -0.921317,0.4122783 -0.921317,0.921317 V 8.0825893 H 25.665179 V 19.138393 h -1.842634 v 1.842634 h 2.763951 c 0.509038,0 0.921316,-0.412278 0.921316,-0.921317 V 3.4760045 c 0,-0.5090387 -0.412278,-0.921317 -0.921316,-0.921317 z M 9.0814732,4.3973214 H 25.665179 v 1.842634 H 9.0814732 Z M 2.6322545,9.9252232 c -0.5090387,0 -0.921317,0.4122788 -0.921317,0.9213168 v 16.583706 c 0,0.509038 0.4122783,0.921316 0.921317,0.921316 H 21.058594 c 0.509038,0 0.921317,-0.412278 0.921317,-0.921316 V 10.84654 c 0,-0.509038 -0.412279,-0.9213168 -0.921317,-0.9213168 z M 3.5535714,11.767857 H 20.137277 v 1.842634 H 3.5535714 Z m 0,3.685268 H 20.137277 V 26.508929 H 3.5535714 Z"
         id="Page-1"
         />
    </g>
  </g>
  <path
     style="stroke-width:2.30492187"
     d="M 25.077295,1020.6268 C 14.262615,1016.8017 3.7334841,1005.292 1.9597959,995.35631 1.2704044,991.49453 1.0037436,837.23675 1.3672162,652.56124 2.0265969,317.53872 2.0387063,316.77334 6.7803371,310.42275 9.3940812,306.92209 14.3968,301.9194 17.897491,299.30565 c 6.359678,-4.74837 6.672147,-4.75275 381.497199,-5.34894 l 375.13232,-0.59668 9.95431,5.26397 c 5.8835,3.11127 11.70317,8.52487 14.23073,13.23779 4.10974,7.66307 4.27641,21.18892 4.27641,347.06869 v 339.09484 l -5.19391,7.70718 c -2.85665,4.239 -8.82064,9.8378 -13.2533,12.4417 -8.03037,4.7174 -9.39546,4.7362 -379.15183,5.224 -314.943257,0.4154 -372.487448,0 -380.312125,-2.7714 z M 731.53588,731.3361 V 510.06359 H 401.93204 72.328195 V 731.3361 952.60861 H 401.93204 731.53588 Z m 0,-328.45138 V 364.85351 H 401.93204 72.328195 v 38.03121 38.03121 H 401.93204 731.53588 Z"
     id="path6356"
     />
  <path
     style="stroke-width:2.30492187"
     d="m 879.05089,695.66833 v -35.66774 l 36.30252,-0.63478 36.30252,-0.63475 0.58787,-219.54382 0.58787,-219.54381 H 586.24321 219.65475 l 0.67046,-97.56545 0.67046,-97.565452 6.20843,-8.136596 C 240.18915,-0.64191896 207.15346,0.6700951 621.24797,0.72645957 c 357.58308,0.048673 372.25988,0.21562084 381.33633,4.33767803 5.4805,2.4889753 11.5225,7.6571984 14.4057,12.3222784 l 4.9661,8.035222 V 366.84761 708.2736 l -8.2942,9.18065 c -4.8429,5.36051 -11.7963,10.15341 -16.71071,11.51838 -4.62909,1.28578 -33.05036,2.34356 -63.15841,2.35061 l -54.74189,0.0129 z M 952.28925,109.5834 952.92257,72.12842 H 622.10918 291.29579 v 38.03905 38.03905 l 330.18007,-0.58407 330.18007,-0.58407 z"
     id="path6358"
     />
</svg>
