<?xml version="1.0" encoding="UTF-8" standalone="no"?>
<svg
   xmlns:svg="http://www.w3.org/2000/svg"
   xmlns="http://www.w3.org/2000/svg"
   width="1024"
   height="1024"
   viewBox="0 0 1024 1024"
   version="1.1"
   id="svg6130"
   >
  <metadata
     id="metadata6134">
    </metadata>
  <!-- Generator: Sketch 43.2 (39069) - http://www.bohemiancoding.com/sketch -->
  <title
     id="title6120">newpackage_grey</title>
  <desc
     id="desc6122">Created with Sketch.</desc>
  <defs
     id="defs6124" />
  <g
     id="Page-1"
     style="fill:none;fill-rule:evenodd;stroke:none;stroke-width:1"
     transform="matrix(35.541798,0,0,35.541798,-13.871861,-29.988662)">
    <g
       id="newpackage_grey"
       style="fill:#778591">
      <path
         d="m 4.3883102,24.664131 10.1100918,4.916682 c 0.202178,0.09879 0.438822,0.09879 0.641,0 l 10.060686,-4.916682 c 0.249278,-0.122915 0.407798,-0.376772 0.408945,-0.65594 v -5.476017 l 2.599586,-1.514029 c 0.363009,-0.209072 0.611123,-0.572069 0.67432,-0.98563 0.06318,-0.414708 -0.06433,-0.835122 -0.34807,-1.142991 L 25.850265,11.97748 28.391271,8.9458346 h -0.0011 C 28.707166,8.5678861 28.835825,8.0681896 28.740485,7.5845791 28.646289,7.1021155 28.338422,6.6874074 27.901893,6.457674 L 19.079568,1.9765207 C 18.906109,1.871985 18.697032,1.8455651 18.501764,1.9018515 c -0.195285,0.056289 -0.357245,0.1906916 -0.449145,0.3710376 -0.0919,0.1815017 -0.104535,0.3917113 -0.03561,0.5824206 0.07007,0.1906916 0.214814,0.3446294 0.400915,0.4238833 l 8.822326,4.4788007 c 0.0448,0.022973 0.07582,0.065479 0.08501,0.1148726 0.0092,0.049396 -0.0046,0.099939 -0.03791,0.1378488 L 24.696936,11.077944 20.847462,9.0400746 c -0.172312,-0.096493 -0.375626,-0.1183191 -0.564041,-0.06318 -0.189542,0.056289 -0.346923,0.1860952 -0.439969,0.3595686 -0.0919,0.1746086 -0.110279,0.3779485 -0.05055,0.5651876 0.06088,0.1883922 0.192988,0.3434832 0.36989,0.4319412 l 3.11781,1.649599 -8.528248,4.27324 -8.4614926,-4.173254 3.0969304,-1.702444 C 9.5647011,10.29113 9.6979594,10.133755 9.7565396,9.9430573 9.8151257,9.7535156 9.7944491,9.547876 9.6991033,9.374429 9.6026077,9.1998205 9.4406357,9.0723232 9.2488118,9.0206244 9.0569733,8.9689314 8.8524835,8.9965012 8.6813304,9.0987372 L 4.9500748,11.136606 2.3033779,7.9867419 c -0.032166,-0.03791 -0.0448,-0.087303 -0.03561,-0.1355521 0.00919,-0.048249 0.039056,-0.090749 0.082709,-0.1137257 L 11.099283,3.2733673 C 11.445059,3.0815288 11.577159,2.6495995 11.396801,2.2980886 11.216449,1.9454308 10.789119,1.8006859 10.431874,1.9695452 L 1.6854211,6.4518748 C 1.2523331,6.6827727 0.94563966,7.0974632 0.85259353,7.5787799 0.75839756,8.0612435 0.88705647,8.5597931 1.2029575,8.9365947 l 2.5318302,3.0407613 -2.6846035,2.923543 c -0.27914425,0.307869 -0.40435658,0.724842 -0.34118873,1.136109 0.0631796,0.411238 0.30901663,0.771954 0.66740893,0.981013 l 2.5995856,1.50256 v 5.472489 c -0.00459,0.284887 0.1562287,0.546808 0.4123849,0.670849 z m 1.049945,-5.293395 3.8759418,2.237753 c 0.6766136,0.392859 1.528968,0.304429 2.111388,-0.217111 l 0.02298,-0.02068 2.646697,-2.573178 v 8.957894 l -8.6570538,-4.21707 z m 18.7083298,4.167666 -8.592651,4.213543 v -8.886729 l 2.582354,2.514599 0.02298,0.02068 v -0.0011 c 0.58242,0.522664 1.434775,0.611123 2.111388,0.218262 l 3.875942,-2.246929 z m 0.565188,-10.637372 2.676576,2.914367 -7.849224,4.534088 c -0.126362,0.07352 -0.286037,0.05973 -0.397475,-0.03446 l -3.134866,-3.049878 z m -19.917871,0.07926 8.757923,4.308824 -3.1084,3.028116 c -0.111429,0.0942 -0.271104,0.109129 -0.397475,0.03561 L 2.1976086,15.815227 Z"
         id="Fill-1"
         />
      <path
         d="m 14.762483,0.84385173 c -0.404357,0 -0.731753,0.32739647 -0.731753,0.73175307 V 9.1951535 L 12.034208,7.1986318 C 11.745874,6.9263807 11.29328,6.9332739 11.012965,7.213565 c -0.280294,0.2802912 -0.286037,0.7329 -0.01379,1.0200962 l 3.234853,3.2348528 c 0.284887,0.286037 0.748986,0.286037 1.035006,0 L 18.50389,8.2336612 c 0.143592,-0.1355521 0.226302,-0.3239559 0.228598,-0.5215171 0.0034,-0.1975848 -0.07467,-0.3882706 -0.213665,-0.5284279 -0.140145,-0.1389987 -0.330837,-0.2171116 -0.528427,-0.213665 -0.197585,0.0023 -0.385977,0.085006 -0.521517,0.2285982 L 15.491884,9.1951711 V 1.5823863 C 15.494183,1.3871011 15.417214,1.1998502 15.280515,1.0608692 15.143816,0.92302034 14.957707,0.84490452 14.762439,0.84375762 Z"
         id="Fill-2"
         />
    </g>
  </g>
  <path
     style="stroke-width:1.62982595"
     d="m 500.32052,381.77808 c -4.31735,-2.01918 -26.98571,-23.61372 -67.11413,-63.93486 -52.79067,-53.04424 -60.7381,-61.67303 -61.70731,-66.99772 -2.22851,-12.24304 2.51944,-23.06252 12.35185,-28.14706 5.93182,-3.06746 18.34812,-3.10679 24.0579,-0.0763 2.4206,1.28484 20.53636,18.52681 40.25726,38.31556 l 35.85617,35.97953 0.81491,-138.95725 0.81492,-138.957247 3.72856,-5.996209 c 3.9286,-6.3178845 14.78924,-12.74678984 21.53374,-12.74678984 5.69829,0 16.6421,5.92238514 20.37282,11.02501184 3.19177,4.365485 3.2687,7.385903 3.69368,145.030824 0.2387,77.31487 1.00586,140.57249 1.70479,140.57249 0.69896,0 17.73905,-16.57437 37.86691,-36.83192 20.12784,-20.25754 38.57658,-37.85967 40.99718,-39.11582 6.21412,-3.22477 15.02173,-2.83482 22.53404,0.99768 11.05203,5.63832 16.32226,21.58551 10.65735,32.24806 -3.60759,6.79025 -124.99798,127.07651 -130.1912,129.00702 -6.48875,2.41211 -10.75435,2.08101 -18.22944,-1.41503 z"
     id="path6136"
     />
  <path
     style="stroke-width:1.62982595"
     d="m 504.39508,1021.6007 c -7.84868,-3.0244 -361.60355,-175.24341 -366.33383,-178.34282 -9.51032,-6.23139 -9.26817,-3.50593 -10.15596,-114.30675 L 127.09038,627.24616 79.940928,599.96206 C 54.008731,584.9558 30.425099,570.78977 27.532857,568.48199 24.640616,566.17422 20.004754,559.74441 17.230942,554.19352 13.007858,545.74238 12.190236,542.2216 12.203568,532.54508 12.229681,513.5925 14.02973,511.01825 69.779949,450.20536 113.4113,402.61185 119.45135,395.39622 117.53017,393.16145 116.32051,391.75436 94.72458,365.80019 69.539212,335.48554 18.559446,274.12318 16.66662,271.07851 16.66662,250.43805 c 0,-16.52468 4.985772,-28.50812 16.56044,-39.8035 8.344386,-8.14303 22.468577,-15.72792 167.58859,-89.9973 87.16192,-44.607653 160.97907,-81.574358 164.03809,-82.148235 7.5125,-1.409352 18.89921,3.752328 23.97389,10.867533 5.30808,7.442491 5.39202,19.440417 0.19444,27.799068 -4.07638,6.555553 15.40164,-3.749019 -223.63078,118.308784 -89.516708,45.71017 -98.601327,50.71393 -98.570332,54.29199 0.02391,2.76029 14.115996,20.66836 47.028152,59.76285 25.8467,30.70184 47.77204,55.82154 48.72298,55.82154 0.95093,0 32.22792,-16.67932 69.5044,-37.06513 63.61102,-34.78767 68.29385,-37.06596 76.21251,-37.07854 19.1033,-0.0303 31.24324,20.64981 21.50231,36.62885 -1.90292,3.12156 -4.65051,6.56291 -6.10575,7.64743 -1.45524,1.08453 -27.75692,15.76592 -58.44817,32.62535 -30.69125,16.8594 -55.78319,31.02018 -55.75987,31.46838 0.0233,0.4482 58.13832,29.38236 129.14445,64.29812 71.00612,34.91574 138.75912,68.24358 150.56224,74.06183 l 21.46023,10.57865 150.48641,-75.50479 c 82.76753,-41.52762 151.0243,-75.98007 151.68171,-76.56099 0.65742,-0.58092 -24.27892,-14.51526 -55.41409,-30.96521 -31.13515,-16.44995 -58.24111,-31.38776 -60.23545,-33.19514 -1.99435,-1.80736 -4.85355,-6.50015 -6.35376,-10.4284 -2.27028,-5.94468 -2.40653,-8.21415 -0.81251,-13.53452 3.96469,-13.23298 15.14199,-20.93544 27.6881,-19.08031 3.27288,0.48395 36.90654,17.31932 75.18943,37.63616 38.09718,20.21826 70.00102,36.7352 70.89743,36.70426 0.8964,-0.031 22.16563,-24.45689 47.26495,-54.27993 35.34649,-41.99874 45.63512,-55.22569 45.63512,-58.668 0,-4.25781 -6.73577,-7.86169 -160.53785,-85.89391 -91.89231,-46.622 -162.08204,-83.182588 -164.14914,-85.5024 -14.38658,-16.145295 -2.46163,-41.615726 19.39494,-41.425589 6.00389,0.05223 30.66166,12.077846 168.38667,82.122359 104.52966,53.16193 163.83224,84.20973 168.39339,88.16218 19.02041,16.48202 24.95561,43.91755 14.39611,66.54607 -2.4004,5.14386 -21.12448,28.91829 -48.33047,61.36635 -24.42661,29.13314 -45.75497,54.44939 -47.39636,56.25832 -2.94029,3.2404 -2.25153,4.08263 46.64943,57.0439 56.0561,60.7105 58.5475,64.24872 58.4687,83.0337 -0.055,13.10529 -3.6419,22.78947 -11.9427,32.24349 -3.41929,3.89438 -22.30635,15.91288 -54.79908,34.87063 l -49.58149,28.92807 -0.44276,102.07978 -0.44277,102.07978 -4.25662,5.57976 c -3.63717,4.76775 -30.86598,18.58204 -187.10304,94.92506 -100.56552,49.13992 -185.1938,89.6619 -188.06283,90.0489 -2.86905,0.3869 -7.78341,-0.2856 -10.92083,-1.4946 z M 488.09682,797.24465 c 0,-87.84762 -0.31442,-159.72294 -0.69873,-159.72294 -0.38432,0 -22.93703,21.64683 -50.11715,48.10407 -53.66484,52.23757 -59.5979,56.70158 -78.92954,59.38642 -12.05488,1.67423 -26.41055,-0.51186 -36.27174,-5.52348 -4.15762,-2.11297 -37.53131,-21.15271 -74.16377,-42.31052 -36.63245,-21.15782 -67.26021,-38.46875 -68.06168,-38.46875 -0.84128,0 -1.27802,31.40361 -1.0333,74.29675 l 0.4239,74.29676 153.20364,74.73133 c 84.262,41.10224 153.7537,74.77678 154.426,74.83232 0.67231,0.0555 1.22237,-71.77434 1.22237,-159.62196 z m 208.61773,82.61883 147.49924,-72.39703 0.42402,-74.55924 c 0.38012,-66.84006 0.162,-74.45868 -2.10653,-73.58816 -1.39181,0.5341 -33.59018,18.9554 -71.55191,40.93623 -37.96174,21.98084 -71.86613,40.96885 -75.34307,42.1956 -17.21098,6.07238 -35.77189,4.47 -51.74585,-4.46728 -6.26445,-3.50491 -23.98978,-19.62306 -56.2609,-51.15965 -25.91324,-25.32343 -47.54094,-46.04259 -48.06155,-46.04259 -0.52062,0 -0.94657,71.10448 -0.94657,158.00995 v 158.00996 l 5.29693,-2.27038 c 2.91332,-1.2487 71.6716,-34.84905 152.79619,-74.66741 z M 360.46382,689.41144 C 372.43927,679.05003 468.57527,584.86036 467.88245,584.16753 467.32679,583.61189 156.97679,430.53381 156.40591,430.53381 c -1.09979,0 -91.24892,100.05368 -91.24892,101.27431 0,0.87409 53.90649,32.76441 119.79221,70.86737 163.87903,94.77437 161.66788,93.51995 164.84832,93.51995 1.55402,0 6.35386,-3.05281 10.6663,-6.784 z M 714.80741,674.29301 C 842.6299,600.88174 958.19204,533.54155 958.63602,532.20964 c 0.42512,-1.27537 -69.16929,-78.6525 -88.50508,-98.40255 l -5.57139,-5.69076 -154.81992,77.39624 c -85.15098,42.56794 -154.81994,77.8048 -154.81994,78.30413 0,1.63893 112.44458,109.88343 115.33866,111.03049 1.55304,0.61553 3.6313,1.1707 4.61832,1.23369 0.98704,0.0631 18.95587,-9.74153 39.93074,-21.78787 z"
     id="path6138"
     />
</svg>
