<?xml version="1.0" encoding="UTF-8" standalone="no"?>
<svg
   xmlns:svg="http://www.w3.org/2000/svg"
   xmlns="http://www.w3.org/2000/svg"
   width="1024"
   height="1024"
   viewBox="0 0 1024 1024"
   version="1.1"
   id="svg5541"
   >
  <metadata
     id="metadata5545">
    </metadata>
  <!-- Generator: Sketch 43.2 (39069) - http://www.bohemiancoding.com/sketch -->
  <title
     id="title5531">filter_grey</title>
  <desc
     id="desc5533">Created with Sketch.</desc>
  <defs
     id="defs5535" />
  <g
     id="g5539"
     style="fill:none;fill-rule:evenodd;stroke:none;stroke-width:1"
     transform="matrix(36.899551,0,0,36.899551,-46.445682,-80.037549)">
    <g
       id="filter_grey"
       style="fill:#778591">
      <path
         d="m 26.063027,2.670614 c 0.145374,0.2734995 0.144141,0.6196701 -0.0025,0.8919427 L 18.915182,16.917256 v 12.06351 c -0.0025,0.322766 -0.183564,0.639382 -0.461977,0.804486 -0.277196,0.165086 -0.641874,0.174941 -0.927676,0.02341 l -5.36156,-2.838473 C 11.864598,26.81126 11.663798,26.481086 11.661307,26.142299 V 16.917262 L 4.2103158,3.5726554 C 4.053856,3.286837 4.0600155,2.918482 4.2263311,2.6375994 4.3926467,2.3567104 4.7117415,2.1743606 5.0381974,2.1731306 H 25.222893 c 0.351119,0.0037 0.696056,0.2402357 0.840219,0.4977105 z M 23.636038,4.0652187 H 6.6544017 L 13.435198,16.217351 c 0.07761,0.140445 0.119503,0.301834 0.11827,0.463239 v 8.890097 l 3.469244,1.83318 V 16.680748 c -0.0025,-0.15646 0.03573,-0.314153 0.108414,-0.453367 z"
         id="Page-1"
         />
    </g>
  </g>
  <path
     style="stroke-width:2.30492187"
     d="m 607.6917,1021.5638 c -6.50541,-2.0572 -206.66926,-107.64825 -211.77796,-111.71777 -1.78553,-1.42234 -5.1337,-6.73494 -7.44038,-11.80576 -3.93466,-8.64975 -4.19705,-19.91677 -4.24456,-182.25929 L 384.17819,542.74139 249.00793,300.89503 C 174.66429,167.87953 111.76956,54.270112 109.24185,48.42965 105.91602,40.745051 105.08386,35.476726 106.23048,29.364762 108.3646,17.988925 119.72152,5.5172556 130.6184,2.5830307 136.49376,1.0009618 263.96311,0.41840242 515.90605,0.82219248 887.71268,1.4180886 892.51119,1.4831779 900.23977,6.0354666 912.34091,13.163283 917.50502,21.618131 917.47992,34.261675 917.45918,44.320276 906.55524,65.589708 784.54744,293.54318 l -132.91074,248.32404 -0.62,227.64235 c -0.60716,222.91757 -0.7157,227.80477 -5.22987,235.46863 -8.32335,14.1309 -24.11543,21.0063 -38.09513,16.5856 z m -24.75076,-293.51153 0.613,-203.40936 120.75903,-225.88235 C 770.73045,174.52526 825.50475,72.100292 826.03364,71.149512 c 0.52889,-0.95078 -140.16081,-1.728691 -312.64379,-1.728691 -172.48298,0 -313.60542,0.842534 -313.60542,1.872297 0,1.029765 56.78752,103.454732 126.19448,227.611032 l 126.19448,225.73876 1.15246,170.15538 1.15246,170.15535 62.23289,33.11576 c 34.22809,18.21365 62.99426,33.17797 63.92482,33.25398 0.93057,0.0761 1.96778,-91.39596 2.30492,-203.27111 z"
     id="path5547"
     />
</svg>
