<?xml version="1.0" encoding="UTF-8" standalone="no"?>
<svg
   xmlns:svg="http://www.w3.org/2000/svg"
   xmlns="http://www.w3.org/2000/svg"
   width="1024"
   height="1024"
   viewBox="0 0 1024 1024"
   version="1.1"
   id="svg5980"
   >
  <metadata
     id="metadata5984">
    </metadata>
  <!-- Generator: Sketch 43.2 (39069) - http://www.bohemiancoding.com/sketch -->
  <title
     id="title5968">newmodule_grey</title>
  <desc
     id="desc5970">Created with Sketch.</desc>
  <defs
     id="defs5972" />
  <g
     id="g5978"
     style="fill:none;fill-rule:evenodd;stroke:none;stroke-width:1"
     transform="matrix(36.304518,0,0,36.304518,-25.156972,-60.301611)">
    <g
       id="newmodule_grey"
       style="fill:#778591">
      <g
         id="Page-1"
         transform="translate(0.676758,1.843852)">
        <path
           d="m 13.821644,27.736962 c 0.202178,0.09879 0.438822,0.09879 0.641,0 L 24.523331,22.82028 c 0.249277,-0.122916 0.407797,-0.376773 0.408944,-0.65594 v -5.476018 l 2.599586,-1.514029 c 0.36301,-0.209071 0.611123,-0.572069 0.67432,-0.98563 0.06318,-0.414708 -0.06433,-0.835121 -0.34807,-1.142991 L 25.173507,10.133628 27.714513,7.1019828 C 28.030408,6.7240344 28.159067,6.2243379 28.063727,5.7407274 27.969531,5.2582638 27.661664,4.8435557 27.225135,4.6138223 L 18.40281,0.13266899 C 18.229351,0.02813326 18.020274,0.00171333 17.825006,0.05799977 17.629721,0.11428915 17.467761,0.2486914 17.375862,0.42903738 c -0.0919,0.18150171 -0.104536,0.39171127 -0.03561,0.58242052 0.07007,0.1906916 0.214815,0.3446295 0.400916,0.4238834 l 8.822325,4.4788007 c 0.0448,0.022973 0.07582,0.065479 0.08501,0.1148725 0.0092,0.049396 -0.0046,0.099939 -0.03791,0.1378489 L 24.020179,9.234092 22.603848,10.139339 14.0756,14.41258 5.6141076,10.239325 4.273317,9.2927545 1.6266201,6.1428902 c -0.032166,-0.03791 -0.0448,-0.087303 -0.03561,-0.1355521 0.00919,-0.048249 0.039056,-0.090749 0.082709,-0.1137257 L 10.422525,1.4295156 C 10.768301,1.2376771 10.900401,0.80574775 10.720043,0.45423689 10.539691,0.10157912 10.112362,-0.04316584 9.7551161,0.12569348 L 1.0086633,4.6080231 C 0.5755753,4.838921 0.26888185,5.2536115 0.17583572,5.7349282 0.08163974,6.2173918 0.21029866,6.7159414 0.52619968,7.0927429 L 3.0580298,10.133505 0.37342641,13.057047 c -0.27914427,0.30787 -0.4043566,0.724842 -0.34118875,1.13611 0.06317962,0.411238 0.30901666,0.771953 0.66740894,0.981013 l 2.5995856,1.502559 v 5.472489 c -0.00459,0.284888 0.1562287,0.546808 0.4123849,0.67085 z M 4.7614974,17.526884 8.6374392,19.764638 c 0.6766136,0.392858 1.5289678,0.304429 2.1113888,-0.217112 l 0.02298,-0.02068 2.646698,-2.573178 v 8.957895 L 4.7614474,21.694495 Z m 18.7083296,4.167667 -8.592651,4.213542 v -8.886728 l 2.582354,2.514598 0.02298,0.02068 v -0.0011 c 0.58242,0.522664 1.434775,0.611122 2.111388,0.218261 l 3.875942,-2.246929 z m 0.565188,-10.637373 2.676576,2.914368 -7.849223,4.534087 c -0.126363,0.07352 -0.286038,0.05973 -0.397475,-0.03446 l -3.134867,-3.049878 z m -19.9178708,0.07926 8.7579228,4.308824 -3.1083995,3.028116 c -0.1114289,0.0942 -0.2711042,0.10913 -0.3974752,0.03561 L 1.5208507,13.971375 Z"
           id="Fill-1"
           />
      </g>
      <polygon
         id="+"
         points="14.347633,9.0139531 11.403633,9.0139531 11.403633,7.2379531 14.347633,7.2379531 14.347633,4.0699531 16.363633,4.0699531 16.363633,7.2379531 19.323633,7.2379531 19.323633,9.0139531 16.363633,9.0139531 16.363633,12.197953 14.347633,12.197953 " />
    </g>
  </g>
  <path
     style="stroke-width:3.2596519"
     d="M 318.37066,923.20388 C 215.30644,873.00269 128.76268,829.71272 126.0512,827.00399 c -4.12767,-4.1235 -5.19521,-22.20635 -6.5598,-111.11485 L 117.86158,609.69926 71.378259,582.82992 C 45.812431,568.0518 21.826054,553.18328 18.075194,549.78881 2.3683562,535.57432 -2.4158659,511.34992 6.9186663,493.29892 9.5447693,488.22061 33.747683,460.0638 60.702922,430.72827 87.65816,401.39274 109.68495,375.91699 109.65136,374.11551 109.61776,372.31403 87.57574,344.44747 60.669096,312.18978 6.5786807,247.34221 1.7890766,238.22741 8.4143452,212.74697 10.606105,204.31757 16.669352,193.60069 22.669484,187.5508 35.486492,174.62749 353.50034,10.648551 365.74627,10.648551 c 10.60143,0 24.29624,13.594019 24.29624,24.117453 0,4.463538 -3.3004,11.708533 -7.33422,16.099988 C 378.67447,55.257447 303.8015,95.234418 216.3239,139.7037 86.936209,205.47801 57.452214,221.66665 58.230785,226.50717 c 0.526382,3.27263 22.226286,31.37669 48.222005,62.45349 41.31961,49.39585 50.95517,58.98914 76.60182,76.26588 17.33242,11.67588 90.1426,49.67022 177.93589,92.8518 L 509.58953,531.16756 672.28726,449.374 c 89.48377,-44.98646 171.10829,-87.32409 181.38783,-94.0836 13.19152,-8.67432 32.61083,-28.7642 66.00795,-68.28727 26.02483,-30.79851 47.28774,-58.27197 47.25093,-61.05216 -0.0447,-3.37693 -55.0386,-32.88245 -165.67151,-88.88665 C 633.16531,51.970783 627.9971,48.840539 627.9971,32.122504 c 0,-9.702039 13.35701,-21.473953 24.36541,-21.473953 15.54293,0 335.00834,162.326869 349.48349,177.579659 13.8149,14.55712 18.6283,32.69207 13.7837,51.93177 -2.9007,11.51967 -13.6112,26.50444 -49.79468,69.66612 -25.35449,30.24431 -47.89192,57.17979 -50.08319,59.85665 -3.33117,4.06935 4.32553,13.91229 46.71688,60.05608 27.88554,30.35398 52.94449,59.46596 55.68669,64.69327 6.3054,12.02013 4.0562,35.29845 -4.5506,47.09718 -3.4471,4.72542 -25.24432,19.86318 -48.43831,33.63948 -23.19398,13.7763 -46.93814,28.09148 -52.76476,31.81156 l -10.59387,6.76378 v 103.65585 c 0,77.88436 -1.01304,104.99251 -4.07457,109.03197 -5.34971,7.05848 -376.20679,188.21078 -385.1177,188.11818 -3.7705,-0.039 -91.18071,-41.14501 -194.24493,-91.34622 z M 487.83207,784.54207 V 619.6558 l -51.33952,49.4307 c -28.23674,27.18686 -56.78174,52.24645 -63.43335,55.68789 -16.07608,8.31759 -38.4591,8.03055 -55.6738,-0.71393 -7.54802,-3.8341 -42.59158,-23.63648 -77.87458,-44.0053 -35.28301,-20.36878 -64.98659,-37.03414 -66.00795,-37.03414 -1.02137,0 -1.85704,34.25878 -1.85704,76.1306 v 76.13064 l 157.27821,76.90438 c 86.50301,42.29741 157.64491,76.98027 158.09311,77.073 0.44821,0.0929 0.81492,-74.03015 0.81492,-164.71757 z m 211.06246,86.07244 154.01855,-75.68071 v -75.95637 c 0,-41.77603 -0.93718,-75.95641 -2.08266,-75.95641 -1.14544,0 -30.84902,16.67599 -66.00795,37.05774 -84.25274,48.84165 -88.65621,50.95286 -106.2756,50.95286 -25.21572,0 -36.21311,-7.3436 -88.0609,-58.80344 -27.023,-26.8208 -50.17367,-48.76507 -51.44591,-48.76507 -1.27228,0 -2.31322,72.60874 -2.31322,161.35277 0,126.87536 0.87066,161.36629 4.07457,161.41603 2.24101,0.0349 73.38291,-33.99305 158.09312,-75.6174 z M 410.3003,624.27802 468.40656,566.4192 310.92593,489.00247 c -86.61436,-42.57921 -159.07717,-77.41674 -161.02848,-77.41674 -5.82704,0 -96.789364,101.18159 -93.615545,104.13288 6.704794,6.23473 286.902325,166.30714 291.203895,166.36018 2.58953,0.0326 30.85606,-25.97842 62.8145,-57.80077 z m 412.78634,-24.11517 c 78.25642,-45.08571 143.51221,-83.05795 145.01286,-84.38273 2.70375,-2.38692 -91.54928,-107.45404 -96.39427,-107.45404 -5.80547,0 -315.79188,156.93998 -314.83647,159.39548 2.14595,5.51536 116.4922,114.41528 120.13743,114.41528 2.08781,0 67.824,-36.88831 146.08045,-81.97399 z"
     id="path5986"
     />
  <path
     style="stroke-width:3.2596519"
     d="M 497.61102,323.57513 V 264.9014 h -53.78425 -53.78426 v -30.96669 -30.9667 h 53.78426 53.78425 V 145.9241 88.880196 h 34.22635 34.22634 v 57.043904 57.04391 h 53.78426 53.78425 v 30.88595 30.88595 l -52.96934,0.89566 -52.96934,0.89565 -0.89013,57.85883 -0.89013,57.85882 h -34.15113 -34.15113 z"
     id="path5988"
     />
</svg>
