<?xml version="1.0" encoding="UTF-8" standalone="no"?>
<svg
   xmlns:svg="http://www.w3.org/2000/svg"
   xmlns="http://www.w3.org/2000/svg"
   width="1024"
   height="1024"
   viewBox="0 0 1024 1024"
   version="1.1"
   id="svg6615"
   >
  <metadata
     id="metadata6619">
    </metadata>
  <!-- Generator: Sketch 43.2 (39069) - http://www.bohemiancoding.com/sketch -->
  <title
     id="title6602">sale_grey</title>
  <desc
     id="desc6604">Created with Sketch.</desc>
  <defs
     id="defs6606" />
  <g
     id="g6613"
     style="fill:none;fill-rule:evenodd;stroke:none;stroke-width:1"
     transform="matrix(36.850045,0,0,36.850045,-30.067904,-41.074717)">
    <g
       id="sale_grey"
       style="fill:#778591">
      <g
         id="Page-1"
         transform="translate(0.628906,0.927734)">
        <path
           d="m 19.581467,17.381302 c 0,1.467246 -2.200165,1.467246 -2.200165,0 0,-1.467246 2.200165,-1.467246 2.200165,0"
           id="Fill-1"
           />
        <path
           d="m 10.780808,10.780808 c 0,1.467245 -2.2001653,1.467245 -2.2001653,0 0,-1.4672464 2.2001653,-1.4672464 2.2001653,0"
           id="Fill-2"
           />
        <path
           d="M 27.828036,13.53119 26.260428,10.816749 V 7.6829051 c 0,-0.3932839 -0.209016,-0.7562935 -0.550042,-0.9529354 L 22.995946,5.1623611 21.429711,2.4492939 C 21.233072,2.1082683 20.870059,1.8992527 20.476775,1.8992527 H 17.344304 L 14.631237,0.33438985 c -0.341026,-0.19663841 -0.75904,-0.19663841 -1.100083,0 L 10.816714,1.9006256 H 7.6828699 c -0.3932839,0 -0.7562935,0.2090156 -0.9529354,0.5500412 L 5.1636988,5.1651069 2.4492587,6.7313426 C 2.1082331,6.927981 1.8992174,7.2909941 1.8992174,7.684278 v 3.133844 L 0.33435464,13.53119 c -0.1966384,0.341025 -0.1966384,0.759039 0,1.100082 l 1.56623576,2.71444 v 3.132471 c 0,0.393284 0.2090156,0.756294 0.5500412,0.952936 l 2.7130672,1.566235 1.5676086,2.714441 c 0.1966384,0.341025 0.5596515,0.550041 0.9529354,0.550041 h 3.1338442 l 2.713067,1.566236 c 0.170515,0.09901 0.360264,0.147136 0.550042,0.147136 0.189777,0 0.379519,-0.0495 0.550041,-0.147136 l 2.71444,-1.567609 h 3.132471 c 0.393284,0 0.756294,-0.209016 0.952936,-0.550041 l 1.566235,-2.71444 2.71444,-1.566236 c 0.341026,-0.196639 0.550042,-0.559652 0.550042,-0.952936 v -3.132471 l 1.566235,-2.713067 c 0.196639,-0.341026 0.196639,-0.759039 0,-1.100082 z M 6.3804779,10.780984 c 0,-1.8206457 1.479602,-3.3002477 3.3002472,-3.3002477 1.8206449,0 3.3002469,1.479602 3.3002469,3.3002477 0,1.820645 -1.479602,3.300247 -3.3002469,3.300247 -1.8206452,0 -3.3002472,-1.479602 -3.3002472,-3.300247 z m 5.3437601,9.367069 c -0.206266,0.343775 -0.57067,0.533531 -0.944698,0.533531 -0.192516,0 -0.387792,-0.05088 -0.565178,-0.156761 C 9.6931868,20.212675 9.5240734,19.536122 9.8375881,19.014947 L 16.438082,8.0141232 c 0.312149,-0.5211751 0.988702,-0.6902886 1.509877,-0.3767739 0.521175,0.3121488 0.690288,0.9887013 0.376773,1.5098763 z m 6.757146,0.533531 c -1.820645,0 -3.300247,-1.479602 -3.300247,-3.300247 0,-1.820645 1.479602,-3.300247 3.300247,-3.300247 1.820645,0 3.300247,1.479602 3.300247,3.300247 0,1.820645 -1.479602,3.300247 -3.300247,3.300247 z"
           id="Fill-3"
           />
      </g>
    </g>
  </g>
  <path
     style="stroke-width:2.30492187"
     d="m 492.84463,1017.6398 c -5.05204,-2.6919 -29.60916,-16.6943 -54.57135,-31.11649 l -45.38578,-26.22222 -61.79309,-0.0507 c -55.71665,-0.0456 -62.74136,-0.48115 -71.43654,-4.4289 -11.30525,-5.13277 -12.29985,-6.54965 -48.47081,-69.05058 L 183.97331,839.7475 130.98306,809.18575 C 87.638777,784.18726 76.734104,776.87294 71.078051,769.00442 L 64.163285,759.38482 63.396866,694.46481 62.630448,629.54479 32.28042,576.70823 C 4.1119837,527.66961 1.9303923,523.01787 1.9303923,511.99377 c 0,-11.0241 2.1815914,-15.67584 30.3500277,-64.71446 l 30.350028,-52.83656 0.766418,-64.92002 0.766419,-64.92001 6.914766,-9.6196 c 5.657816,-7.87096 16.551389,-15.17512 59.927969,-40.1818 l 53.01321,-30.56221 29.96398,-51.89031 c 16.48019,-28.53966 31.51981,-53.753959 33.42137,-56.031764 1.90156,-2.277802 7.60624,-6.028733 12.67707,-8.335402 8.17155,-3.717153 16.24541,-4.199699 71.01912,-4.244565 l 61.79941,-0.05062 52.29423,-30.323955 C 491.73403,6.3754562 498.88362,2.9316688 510.16568,2.067366 l 12.67708,-0.9711728 54.4207,31.2951268 54.42068,31.295129 59.67296,0.01291 c 32.8201,0.0071 63.34919,1.034145 67.8424,2.282387 12.69351,3.526346 20.51503,13.696791 49.63989,64.547494 14.88467,25.98799 28.59576,49.04753 30.46908,51.24341 1.87333,2.19588 25.82147,16.90615 53.21807,32.6895 50.26182,28.95612 60.17838,36.34572 64.64737,48.17391 1.50797,3.99116 2.45156,30.0764 2.45156,67.77236 v 61.28375 l 30.46012,52.08361 30.46011,52.08358 0.027,16.13446 0.027,16.13445 -30.48725,52.14957 -30.48738,52.14953 v 61.44187 c 0,68.0412 -0.58974,71.49335 -14.21766,83.22656 -4.39424,3.78332 -29.85927,19.32534 -56.58892,34.53783 l -48.5994,27.65906 -28.46028,49.53867 c -31.33094,54.5354 -39.71138,65.60619 -52.31267,69.10626 -4.6865,1.30173 -34.8621,2.34346 -68.08944,2.35061 l -59.67296,0.0129 -54.23983,31.11645 c -48.04643,27.56332 -55.44875,31.11642 -64.82697,31.11642 -6.37166,0 -14.24456,-1.9488 -19.77271,-4.8942 z M 408.28735,751.91144 c 3.42325,-1.78839 8.93277,-6.19655 12.2434,-9.79592 3.31063,-3.59939 61.80213,-99.62703 129.98112,-213.39479 l 123.96181,-206.8505 v -12.84616 c 0,-10.46384 -1.23652,-14.59022 -6.66779,-22.25077 -9.68461,-13.65966 -19.68099,-18.40409 -36.72985,-17.43247 -9.85493,0.56162 -16.07642,2.32382 -21.27609,6.02631 -9.30778,6.62771 -258.29735,420.37151 -260.2613,432.47394 -2.80325,17.27435 5.01408,33.23013 21.08102,43.02807 8.50101,5.18407 28.67132,5.74221 37.66768,1.04229 z m 297.95459,-0.46495 c 44.72629,-13.27776 78.52588,-49.05091 87.58782,-92.70207 3.7218,-17.92782 1.6272,-49.26024 -4.41137,-65.98819 -19.66534,-54.47644 -76.81222,-88.77211 -133.29013,-79.99169 -62.51511,9.719 -107.92689,65.92524 -103.71421,128.36723 4.40326,65.26684 55.66331,113.78745 120.40652,113.97175 12.685,0.0362 25.82379,-1.40155 33.42137,-3.65703 z M 379.8055,508.57018 c 43.11896,-11.02797 75.07608,-42.28569 88.26198,-86.33026 5.13731,-17.16005 4.44857,-49.64951 -1.44783,-68.29956 -6.19845,-19.60532 -19.17548,-39.4548 -35.5694,-54.40639 -22.64489,-20.65263 -49.05215,-30.6347 -81.16861,-30.68211 -34.31263,-0.0507 -58.32464,9.6089 -84.10529,33.83381 -55.48008,52.1322 -49.86531,140.83452 11.78758,186.2208 30.06282,22.13101 65.7547,28.99546 102.24157,19.66371 z"
     id="path6621"
     />
  <path
     style="stroke-width:2.30492187"
     d="m 335.84029,427.66094 c -10.24511,-2.96963 -23.05955,-17.97733 -24.96128,-29.23355 -1.88593,-11.16273 1.61042,-25.32986 8.37297,-33.92703 13.86365,-17.62479 48.82891,-16.75868 62.49687,1.54808 6.4966,8.70149 9.09894,23.56685 6.10772,34.8892 -5.8615,22.18692 -28.15436,33.63985 -52.01628,26.7233 z"
     id="path6623"
     />
  <path
     style="stroke-width:2.30492187"
     d="m 653.04741,666.99977 c -11.86147,-8.07284 -16.76465,-16.3037 -17.7928,-29.8684 -1.78813,-23.59119 15.76967,-43.31287 38.56053,-43.31287 10.35334,0 27.11862,8.41844 33.08888,16.6151 6.5743,9.02596 7.82312,29.5081 2.51663,41.2758 -8.58358,19.03497 -38.82092,27.23638 -56.37324,15.29037 z"
     id="path6625"
     />
</svg>
